<?xml version="1.0" standalone="no"?>
<!DOCTYPE svg PUBLIC "-//W3C//DTD SVG 20010904//EN"
 "http://www.w3.org/TR/2001/REC-SVG-20010904/DTD/svg10.dtd">
<svg version="1.0" xmlns="http://www.w3.org/2000/svg"
 width="16.000000pt" height="16.000000pt" viewBox="0 0 16.000000 16.000000"
 preserveAspectRatio="xMidYMid meet">
<metadata>
Created by potrace 1.11, written by Peter Selinger 2001-2013
</metadata>
<g transform="translate(0.000000,16.000000) scale(0.010667,-0.010667)"
fill="#000000" stroke="none">
<path d="M0 640 l0 -640 750 0 750 0 0 640 0 640 -750 0 -750 0 0 -640z m641
506 c17 -8 34 -37 57 -96 19 -47 38 -93 43 -103 5 -10 7 -33 3 -51 -10 -57 10
-48 35 15 22 57 50 86 59 61 6 -20 19 -13 24 12 6 28 -13 41 -31 23 -20 -20
-12 14 17 73 16 31 38 60 52 67 38 19 500 15 507 -4 3 -7 -2 -43 -11 -81 -8
-37 -17 -78 -18 -91 -3 -23 -6 -23 -113 -26 -60 -2 -115 -3 -121 -4 -7 0 -15
-13 -18 -27 -4 -15 -23 -60 -42 -101 -28 -59 -41 -108 -65 -246 -16 -95 -31
-182 -34 -195 l-5 -22 -243 2 -242 3 -1 25 c-1 14 -7 47 -13 74 -6 27 -9 51
-6 54 2 3 18 5 35 4 33 -1 33 -1 24 22 -5 13 -9 14 -20 5 -11 -9 -18 -8 -30 2
-14 12 -16 28 -11 107 6 92 6 94 -35 192 -27 67 -46 100 -57 101 -9 0 -70 1
-136 2 l-119 2 -18 85 c-9 47 -17 95 -18 107 l0 23 263 -1 c183 0 271 -4 288
-13z"/>
<path d="M867 1082 c-10 -10 -14 -21 -11 -25 9 -9 44 16 44 30 0 18 -14 16
-33 -5z"/>
<path d="M1313 1089 c-13 -5 -23 -13 -23 -18 0 -15 18 -23 25 -11 3 5 15 10
26 10 10 0 19 4 19 9 0 14 -23 19 -47 10z"/>
<path d="M1220 1030 c-23 -46 -18 -51 16 -14 26 27 29 39 14 49 -5 3 -18 -12
-30 -35z"/>
<path d="M460 950 c0 -11 5 -20 10 -20 6 0 10 9 10 20 0 11 -4 20 -10 20 -5 0
-10 -9 -10 -20z"/>
<path d="M873 593 c-19 -7 -16 -20 7 -26 15 -4 20 0 20 14 0 19 -5 21 -27 12z"/>
<path d="M650 540 c0 -5 5 -10 10 -10 6 0 10 5 10 10 0 6 -4 10 -10 10 -5 0
-10 -4 -10 -10z"/>
<path d="M562 503 c-10 -4 -10 -8 -1 -19 16 -20 29 -17 29 6 0 20 -5 23 -28
13z"/>
<path d="M950 483 c0 -13 5 -23 10 -23 13 0 13 11 0 30 -8 12 -10 11 -10 -7z"/>
</g>
</svg>
